<svg id="Capa_1" enable-background="new 0 0 512 512" height="512" viewBox="0 0 512 512" width="512" xmlns="http://www.w3.org/2000/svg"><g><g><g><g><path d="m180.67 197.24-35.733 58.74 35.733 58.78 14.4 50.778 60.93 15.992 44.559-115.349-44.559-135.711h-60.93z" fill="#96fff6"/></g><g><path d="m256 130.47v251.06l75.33-7.349v-59.421l44.67-58.78-44.67-58.74v-58.045z" fill="#76e2f8"/></g></g></g><path d="m180.67 197.24v117.52l-26.379 55.169-71.241-11.249v-205.36l61.887-11.296z" fill="#66c0ee"/><path d="m256 0 44.559 79.094-44.559 51.376-75.33 66.77-97.62-43.92z" fill="#76e2f8"/><path d="m428.95 153.32v205.36h-75.415l-22.205-43.92v-117.52l36.41-43.92z" fill="#3aaaff"/><path d="m428.95 153.32-97.62 43.92-75.33-66.77v-130.47z" fill="#66c0ee"/><path d="m256 381.53 44.559 49.627-44.559 80.843-172.95-153.32 97.62-43.92z" fill="#76e2f8"/><path d="m428.95 358.68-172.95 153.32v-130.47l75.33-66.77z" fill="#66c0ee"/></g></svg>